<mxfile host="app.diagrams.net" modified="2022-12-17T15:36:23.650Z" agent="5.0 (Windows NT 10.0; Win64; x64) AppleWebKit/537.36 (KHTML, like Gecko) Chrome/108.0.0.0 Safari/537.36" etag="fl-260zpwzYAGInGRKfN" version="20.4.2" type="github">
  <diagram id="WKjucKP-08SMSvWkyjiQ" name="PÃ¡gina-1">
    <mxGraphModel dx="2307" dy="1278" grid="1" gridSize="10" guides="1" tooltips="1" connect="1" arrows="1" fold="1" page="1" pageScale="1" pageWidth="827" pageHeight="1169" math="0" shadow="0">
      <root>
        <mxCell id="0" />
        <mxCell id="1" parent="0" />
        <mxCell id="HNXHlKbKwTbGvnT8KDBV-40" style="edgeStyle=orthogonalEdgeStyle;rounded=0;orthogonalLoop=1;jettySize=auto;html=1;exitX=1;exitY=0.5;exitDx=0;exitDy=0;entryX=0;entryY=0.5;entryDx=0;entryDy=0;" edge="1" parent="1" source="HNXHlKbKwTbGvnT8KDBV-37" target="HNXHlKbKwTbGvnT8KDBV-38">
          <mxGeometry relative="1" as="geometry" />
        </mxCell>
        <mxCell id="HNXHlKbKwTbGvnT8KDBV-43" style="edgeStyle=orthogonalEdgeStyle;rounded=0;orthogonalLoop=1;jettySize=auto;html=1;exitX=1;exitY=0.5;exitDx=0;exitDy=0;entryX=0;entryY=0.5;entryDx=0;entryDy=0;" edge="1" parent="1" source="HNXHlKbKwTbGvnT8KDBV-37" target="HNXHlKbKwTbGvnT8KDBV-42">
          <mxGeometry relative="1" as="geometry" />
        </mxCell>
        <mxCell id="HNXHlKbKwTbGvnT8KDBV-37" value="Welcome + Login&lt;br&gt;View" style="rounded=1;whiteSpace=wrap;html=1;" vertex="1" parent="1">
          <mxGeometry y="840" width="120" height="60" as="geometry" />
        </mxCell>
        <mxCell id="HNXHlKbKwTbGvnT8KDBV-45" style="edgeStyle=orthogonalEdgeStyle;rounded=0;orthogonalLoop=1;jettySize=auto;html=1;exitX=1;exitY=0.5;exitDx=0;exitDy=0;entryX=0;entryY=0.5;entryDx=0;entryDy=0;" edge="1" parent="1" source="HNXHlKbKwTbGvnT8KDBV-38" target="HNXHlKbKwTbGvnT8KDBV-44">
          <mxGeometry relative="1" as="geometry" />
        </mxCell>
        <mxCell id="HNXHlKbKwTbGvnT8KDBV-38" value="User fills&lt;br&gt;LogIn form" style="shape=trapezoid;perimeter=trapezoidPerimeter;whiteSpace=wrap;html=1;fixedSize=1;" vertex="1" parent="1">
          <mxGeometry x="220" y="840" width="120" height="60" as="geometry" />
        </mxCell>
        <mxCell id="HNXHlKbKwTbGvnT8KDBV-53" style="edgeStyle=orthogonalEdgeStyle;rounded=0;orthogonalLoop=1;jettySize=auto;html=1;exitX=1;exitY=0.5;exitDx=0;exitDy=0;entryX=0;entryY=0.5;entryDx=0;entryDy=0;" edge="1" parent="1" source="HNXHlKbKwTbGvnT8KDBV-42" target="HNXHlKbKwTbGvnT8KDBV-52">
          <mxGeometry relative="1" as="geometry" />
        </mxCell>
        <mxCell id="HNXHlKbKwTbGvnT8KDBV-42" value="User Clicks on&amp;nbsp;&lt;br&gt;SignIn link" style="shape=trapezoid;perimeter=trapezoidPerimeter;whiteSpace=wrap;html=1;fixedSize=1;" vertex="1" parent="1">
          <mxGeometry x="160" y="980" width="120" height="60" as="geometry" />
        </mxCell>
        <mxCell id="HNXHlKbKwTbGvnT8KDBV-49" style="edgeStyle=orthogonalEdgeStyle;rounded=0;orthogonalLoop=1;jettySize=auto;html=1;exitX=0.5;exitY=0;exitDx=0;exitDy=0;entryX=0.5;entryY=1;entryDx=0;entryDy=0;" edge="1" parent="1" source="HNXHlKbKwTbGvnT8KDBV-44" target="HNXHlKbKwTbGvnT8KDBV-47">
          <mxGeometry relative="1" as="geometry" />
        </mxCell>
        <mxCell id="HNXHlKbKwTbGvnT8KDBV-50" style="edgeStyle=orthogonalEdgeStyle;rounded=0;orthogonalLoop=1;jettySize=auto;html=1;exitX=1;exitY=0.5;exitDx=0;exitDy=0;entryX=0;entryY=0.5;entryDx=0;entryDy=0;" edge="1" parent="1" source="HNXHlKbKwTbGvnT8KDBV-44" target="HNXHlKbKwTbGvnT8KDBV-46">
          <mxGeometry relative="1" as="geometry" />
        </mxCell>
        <mxCell id="HNXHlKbKwTbGvnT8KDBV-44" value="Successful&lt;br&gt;LogIn" style="rhombus;whiteSpace=wrap;html=1;" vertex="1" parent="1">
          <mxGeometry x="413" y="830" width="80" height="80" as="geometry" />
        </mxCell>
        <mxCell id="HNXHlKbKwTbGvnT8KDBV-67" style="edgeStyle=orthogonalEdgeStyle;rounded=0;orthogonalLoop=1;jettySize=auto;html=1;exitX=1;exitY=0.5;exitDx=0;exitDy=0;entryX=0;entryY=0.5;entryDx=0;entryDy=0;" edge="1" parent="1" source="HNXHlKbKwTbGvnT8KDBV-46" target="HNXHlKbKwTbGvnT8KDBV-66">
          <mxGeometry relative="1" as="geometry" />
        </mxCell>
        <mxCell id="HNXHlKbKwTbGvnT8KDBV-46" value="Yes" style="text;html=1;strokeColor=none;fillColor=none;align=center;verticalAlign=middle;whiteSpace=wrap;rounded=0;" vertex="1" parent="1">
          <mxGeometry x="550" y="855" width="60" height="30" as="geometry" />
        </mxCell>
        <mxCell id="HNXHlKbKwTbGvnT8KDBV-48" style="edgeStyle=orthogonalEdgeStyle;rounded=0;orthogonalLoop=1;jettySize=auto;html=1;exitX=0;exitY=0.5;exitDx=0;exitDy=0;entryX=0.5;entryY=0;entryDx=0;entryDy=0;" edge="1" parent="1" source="HNXHlKbKwTbGvnT8KDBV-47" target="HNXHlKbKwTbGvnT8KDBV-37">
          <mxGeometry relative="1" as="geometry" />
        </mxCell>
        <mxCell id="HNXHlKbKwTbGvnT8KDBV-47" value="No" style="text;html=1;strokeColor=none;fillColor=none;align=center;verticalAlign=middle;whiteSpace=wrap;rounded=0;" vertex="1" parent="1">
          <mxGeometry x="423" y="760" width="60" height="30" as="geometry" />
        </mxCell>
        <mxCell id="HNXHlKbKwTbGvnT8KDBV-55" style="edgeStyle=orthogonalEdgeStyle;rounded=0;orthogonalLoop=1;jettySize=auto;html=1;exitX=0.5;exitY=1;exitDx=0;exitDy=0;entryX=0.5;entryY=0;entryDx=0;entryDy=0;" edge="1" parent="1" source="HNXHlKbKwTbGvnT8KDBV-52" target="HNXHlKbKwTbGvnT8KDBV-54">
          <mxGeometry relative="1" as="geometry" />
        </mxCell>
        <mxCell id="HNXHlKbKwTbGvnT8KDBV-52" value="Sign In&lt;br&gt;View" style="rounded=0;whiteSpace=wrap;html=1;" vertex="1" parent="1">
          <mxGeometry x="340" y="980" width="120" height="60" as="geometry" />
        </mxCell>
        <mxCell id="HNXHlKbKwTbGvnT8KDBV-57" style="edgeStyle=orthogonalEdgeStyle;rounded=0;orthogonalLoop=1;jettySize=auto;html=1;exitX=0.5;exitY=1;exitDx=0;exitDy=0;entryX=0.5;entryY=0;entryDx=0;entryDy=0;" edge="1" parent="1" source="HNXHlKbKwTbGvnT8KDBV-54" target="HNXHlKbKwTbGvnT8KDBV-56">
          <mxGeometry relative="1" as="geometry" />
        </mxCell>
        <mxCell id="HNXHlKbKwTbGvnT8KDBV-54" value="User fills&lt;br&gt;SignIn form" style="shape=trapezoid;perimeter=trapezoidPerimeter;whiteSpace=wrap;html=1;fixedSize=1;" vertex="1" parent="1">
          <mxGeometry x="340" y="1090" width="120" height="60" as="geometry" />
        </mxCell>
        <mxCell id="HNXHlKbKwTbGvnT8KDBV-61" style="edgeStyle=orthogonalEdgeStyle;rounded=0;orthogonalLoop=1;jettySize=auto;html=1;exitX=0.5;exitY=1;exitDx=0;exitDy=0;entryX=0;entryY=0.5;entryDx=0;entryDy=0;" edge="1" parent="1" source="HNXHlKbKwTbGvnT8KDBV-56" target="HNXHlKbKwTbGvnT8KDBV-58">
          <mxGeometry relative="1" as="geometry" />
        </mxCell>
        <mxCell id="HNXHlKbKwTbGvnT8KDBV-63" style="edgeStyle=orthogonalEdgeStyle;rounded=0;orthogonalLoop=1;jettySize=auto;html=1;exitX=0;exitY=0.5;exitDx=0;exitDy=0;entryX=1;entryY=0.5;entryDx=0;entryDy=0;" edge="1" parent="1" source="HNXHlKbKwTbGvnT8KDBV-56" target="HNXHlKbKwTbGvnT8KDBV-62">
          <mxGeometry relative="1" as="geometry" />
        </mxCell>
        <mxCell id="HNXHlKbKwTbGvnT8KDBV-56" value="Successful&lt;br&gt;Register" style="rhombus;whiteSpace=wrap;html=1;" vertex="1" parent="1">
          <mxGeometry x="360" y="1190" width="80" height="80" as="geometry" />
        </mxCell>
        <mxCell id="HNXHlKbKwTbGvnT8KDBV-60" style="edgeStyle=orthogonalEdgeStyle;rounded=0;orthogonalLoop=1;jettySize=auto;html=1;exitX=1;exitY=0.5;exitDx=0;exitDy=0;entryX=1;entryY=0.5;entryDx=0;entryDy=0;" edge="1" parent="1" source="HNXHlKbKwTbGvnT8KDBV-58" target="HNXHlKbKwTbGvnT8KDBV-52">
          <mxGeometry relative="1" as="geometry" />
        </mxCell>
        <mxCell id="HNXHlKbKwTbGvnT8KDBV-58" value="No" style="text;html=1;strokeColor=none;fillColor=none;align=center;verticalAlign=middle;whiteSpace=wrap;rounded=0;" vertex="1" parent="1">
          <mxGeometry x="460" y="1280" width="60" height="30" as="geometry" />
        </mxCell>
        <mxCell id="HNXHlKbKwTbGvnT8KDBV-65" style="edgeStyle=orthogonalEdgeStyle;rounded=0;orthogonalLoop=1;jettySize=auto;html=1;exitX=0.5;exitY=0;exitDx=0;exitDy=0;entryX=0.5;entryY=1;entryDx=0;entryDy=0;" edge="1" parent="1" source="HNXHlKbKwTbGvnT8KDBV-62" target="HNXHlKbKwTbGvnT8KDBV-37">
          <mxGeometry relative="1" as="geometry" />
        </mxCell>
        <mxCell id="HNXHlKbKwTbGvnT8KDBV-62" value="Yes" style="text;html=1;strokeColor=none;fillColor=none;align=center;verticalAlign=middle;whiteSpace=wrap;rounded=0;" vertex="1" parent="1">
          <mxGeometry x="30" y="1215" width="60" height="30" as="geometry" />
        </mxCell>
        <mxCell id="HNXHlKbKwTbGvnT8KDBV-70" style="edgeStyle=orthogonalEdgeStyle;rounded=0;orthogonalLoop=1;jettySize=auto;html=1;exitX=1;exitY=0.5;exitDx=0;exitDy=0;entryX=0;entryY=0.5;entryDx=0;entryDy=0;" edge="1" parent="1" source="HNXHlKbKwTbGvnT8KDBV-66" target="HNXHlKbKwTbGvnT8KDBV-68">
          <mxGeometry relative="1" as="geometry" />
        </mxCell>
        <mxCell id="HNXHlKbKwTbGvnT8KDBV-74" style="edgeStyle=orthogonalEdgeStyle;rounded=0;orthogonalLoop=1;jettySize=auto;html=1;exitX=1;exitY=0.25;exitDx=0;exitDy=0;entryX=0.5;entryY=1;entryDx=0;entryDy=0;" edge="1" parent="1" source="HNXHlKbKwTbGvnT8KDBV-66" target="HNXHlKbKwTbGvnT8KDBV-72">
          <mxGeometry relative="1" as="geometry" />
        </mxCell>
        <mxCell id="HNXHlKbKwTbGvnT8KDBV-84" style="edgeStyle=orthogonalEdgeStyle;rounded=0;orthogonalLoop=1;jettySize=auto;html=1;exitX=1;exitY=0.75;exitDx=0;exitDy=0;entryX=0.5;entryY=0;entryDx=0;entryDy=0;" edge="1" parent="1" source="HNXHlKbKwTbGvnT8KDBV-66" target="HNXHlKbKwTbGvnT8KDBV-83">
          <mxGeometry relative="1" as="geometry" />
        </mxCell>
        <mxCell id="HNXHlKbKwTbGvnT8KDBV-66" value="Home View" style="rounded=0;whiteSpace=wrap;html=1;" vertex="1" parent="1">
          <mxGeometry x="680" y="840" width="120" height="60" as="geometry" />
        </mxCell>
        <mxCell id="HNXHlKbKwTbGvnT8KDBV-71" style="edgeStyle=orthogonalEdgeStyle;rounded=0;orthogonalLoop=1;jettySize=auto;html=1;exitX=1;exitY=0.5;exitDx=0;exitDy=0;entryX=0;entryY=0.5;entryDx=0;entryDy=0;" edge="1" parent="1" source="HNXHlKbKwTbGvnT8KDBV-68" target="HNXHlKbKwTbGvnT8KDBV-69">
          <mxGeometry relative="1" as="geometry" />
        </mxCell>
        <mxCell id="HNXHlKbKwTbGvnT8KDBV-68" value="User clicks on&lt;br&gt;total balance" style="shape=trapezoid;perimeter=trapezoidPerimeter;whiteSpace=wrap;html=1;fixedSize=1;" vertex="1" parent="1">
          <mxGeometry x="950" y="840" width="120" height="60" as="geometry" />
        </mxCell>
        <mxCell id="HNXHlKbKwTbGvnT8KDBV-154" style="edgeStyle=orthogonalEdgeStyle;rounded=0;orthogonalLoop=1;jettySize=auto;html=1;exitX=1;exitY=0.5;exitDx=0;exitDy=0;entryX=0;entryY=0.5;entryDx=0;entryDy=0;" edge="1" parent="1" source="HNXHlKbKwTbGvnT8KDBV-69" target="HNXHlKbKwTbGvnT8KDBV-145">
          <mxGeometry relative="1" as="geometry" />
        </mxCell>
        <mxCell id="HNXHlKbKwTbGvnT8KDBV-157" style="edgeStyle=orthogonalEdgeStyle;rounded=0;orthogonalLoop=1;jettySize=auto;html=1;exitX=0.75;exitY=0;exitDx=0;exitDy=0;entryX=0;entryY=1;entryDx=0;entryDy=0;" edge="1" parent="1" source="HNXHlKbKwTbGvnT8KDBV-69" target="HNXHlKbKwTbGvnT8KDBV-148">
          <mxGeometry relative="1" as="geometry" />
        </mxCell>
        <mxCell id="HNXHlKbKwTbGvnT8KDBV-208" style="edgeStyle=orthogonalEdgeStyle;rounded=0;orthogonalLoop=1;jettySize=auto;html=1;exitX=0;exitY=1;exitDx=0;exitDy=0;entryX=0.5;entryY=0;entryDx=0;entryDy=0;" edge="1" parent="1" source="HNXHlKbKwTbGvnT8KDBV-69" target="HNXHlKbKwTbGvnT8KDBV-142">
          <mxGeometry relative="1" as="geometry" />
        </mxCell>
        <mxCell id="HNXHlKbKwTbGvnT8KDBV-69" value="Balances View" style="rounded=0;whiteSpace=wrap;html=1;" vertex="1" parent="1">
          <mxGeometry x="1170" y="840" width="120" height="60" as="geometry" />
        </mxCell>
        <mxCell id="HNXHlKbKwTbGvnT8KDBV-76" style="edgeStyle=orthogonalEdgeStyle;rounded=0;orthogonalLoop=1;jettySize=auto;html=1;exitX=0.5;exitY=0;exitDx=0;exitDy=0;entryX=0.5;entryY=1;entryDx=0;entryDy=0;" edge="1" parent="1" source="HNXHlKbKwTbGvnT8KDBV-72" target="HNXHlKbKwTbGvnT8KDBV-75">
          <mxGeometry relative="1" as="geometry" />
        </mxCell>
        <mxCell id="HNXHlKbKwTbGvnT8KDBV-72" value="User clicks on&lt;br&gt;Profile Settings" style="shape=trapezoid;perimeter=trapezoidPerimeter;whiteSpace=wrap;html=1;fixedSize=1;" vertex="1" parent="1">
          <mxGeometry x="760" y="730" width="120" height="60" as="geometry" />
        </mxCell>
        <mxCell id="HNXHlKbKwTbGvnT8KDBV-78" style="edgeStyle=orthogonalEdgeStyle;rounded=0;orthogonalLoop=1;jettySize=auto;html=1;exitX=0;exitY=0.5;exitDx=0;exitDy=0;entryX=1;entryY=0.5;entryDx=0;entryDy=0;" edge="1" parent="1" source="HNXHlKbKwTbGvnT8KDBV-75" target="HNXHlKbKwTbGvnT8KDBV-77">
          <mxGeometry relative="1" as="geometry" />
        </mxCell>
        <mxCell id="HNXHlKbKwTbGvnT8KDBV-81" style="edgeStyle=orthogonalEdgeStyle;rounded=0;orthogonalLoop=1;jettySize=auto;html=1;exitX=0.5;exitY=0;exitDx=0;exitDy=0;entryX=0.5;entryY=1;entryDx=0;entryDy=0;" edge="1" parent="1" source="HNXHlKbKwTbGvnT8KDBV-75" target="HNXHlKbKwTbGvnT8KDBV-80">
          <mxGeometry relative="1" as="geometry" />
        </mxCell>
        <mxCell id="HNXHlKbKwTbGvnT8KDBV-164" style="edgeStyle=orthogonalEdgeStyle;rounded=0;orthogonalLoop=1;jettySize=auto;html=1;exitX=1;exitY=0.5;exitDx=0;exitDy=0;entryX=0;entryY=0.5;entryDx=0;entryDy=0;" edge="1" parent="1" source="HNXHlKbKwTbGvnT8KDBV-75" target="HNXHlKbKwTbGvnT8KDBV-82">
          <mxGeometry relative="1" as="geometry" />
        </mxCell>
        <mxCell id="HNXHlKbKwTbGvnT8KDBV-167" style="edgeStyle=orthogonalEdgeStyle;rounded=0;orthogonalLoop=1;jettySize=auto;html=1;exitX=1;exitY=0.5;exitDx=0;exitDy=0;entryX=0;entryY=0.5;entryDx=0;entryDy=0;" edge="1" parent="1" source="HNXHlKbKwTbGvnT8KDBV-75" target="HNXHlKbKwTbGvnT8KDBV-165">
          <mxGeometry relative="1" as="geometry" />
        </mxCell>
        <mxCell id="HNXHlKbKwTbGvnT8KDBV-169" style="edgeStyle=orthogonalEdgeStyle;rounded=0;orthogonalLoop=1;jettySize=auto;html=1;exitX=0;exitY=0.75;exitDx=0;exitDy=0;entryX=0.5;entryY=0;entryDx=0;entryDy=0;" edge="1" parent="1" source="HNXHlKbKwTbGvnT8KDBV-75" target="HNXHlKbKwTbGvnT8KDBV-168">
          <mxGeometry relative="1" as="geometry" />
        </mxCell>
        <mxCell id="HNXHlKbKwTbGvnT8KDBV-75" value="Menu&amp;nbsp;" style="rounded=0;whiteSpace=wrap;html=1;" vertex="1" parent="1">
          <mxGeometry x="760" y="560" width="120" height="60" as="geometry" />
        </mxCell>
        <mxCell id="HNXHlKbKwTbGvnT8KDBV-79" style="edgeStyle=orthogonalEdgeStyle;rounded=0;orthogonalLoop=1;jettySize=auto;html=1;exitX=0;exitY=0.5;exitDx=0;exitDy=0;entryX=0.25;entryY=0;entryDx=0;entryDy=0;" edge="1" parent="1" source="HNXHlKbKwTbGvnT8KDBV-77" target="HNXHlKbKwTbGvnT8KDBV-37">
          <mxGeometry relative="1" as="geometry" />
        </mxCell>
        <mxCell id="HNXHlKbKwTbGvnT8KDBV-77" value="User clicks on&lt;br&gt;LogOut Button" style="shape=trapezoid;perimeter=trapezoidPerimeter;whiteSpace=wrap;html=1;fixedSize=1;" vertex="1" parent="1">
          <mxGeometry x="550" y="560" width="120" height="60" as="geometry" />
        </mxCell>
        <mxCell id="HNXHlKbKwTbGvnT8KDBV-196" style="edgeStyle=orthogonalEdgeStyle;rounded=0;orthogonalLoop=1;jettySize=auto;html=1;exitX=0.5;exitY=0;exitDx=0;exitDy=0;entryX=0.5;entryY=1;entryDx=0;entryDy=0;" edge="1" parent="1" source="HNXHlKbKwTbGvnT8KDBV-80" target="HNXHlKbKwTbGvnT8KDBV-195">
          <mxGeometry relative="1" as="geometry" />
        </mxCell>
        <mxCell id="HNXHlKbKwTbGvnT8KDBV-80" value="User clicks on&lt;br&gt;update profile" style="shape=trapezoid;perimeter=trapezoidPerimeter;whiteSpace=wrap;html=1;fixedSize=1;" vertex="1" parent="1">
          <mxGeometry x="760" y="420" width="120" height="60" as="geometry" />
        </mxCell>
        <mxCell id="HNXHlKbKwTbGvnT8KDBV-173" style="edgeStyle=orthogonalEdgeStyle;rounded=0;orthogonalLoop=1;jettySize=auto;html=1;exitX=0.5;exitY=0;exitDx=0;exitDy=0;entryX=0.5;entryY=1;entryDx=0;entryDy=0;" edge="1" parent="1" source="HNXHlKbKwTbGvnT8KDBV-82" target="HNXHlKbKwTbGvnT8KDBV-171">
          <mxGeometry relative="1" as="geometry" />
        </mxCell>
        <mxCell id="HNXHlKbKwTbGvnT8KDBV-82" value="User clicks on&lt;br&gt;Make a Deposit&lt;br&gt;Button" style="shape=trapezoid;perimeter=trapezoidPerimeter;whiteSpace=wrap;html=1;fixedSize=1;" vertex="1" parent="1">
          <mxGeometry x="1060" y="520" width="120" height="60" as="geometry" />
        </mxCell>
        <mxCell id="HNXHlKbKwTbGvnT8KDBV-86" style="edgeStyle=orthogonalEdgeStyle;rounded=0;orthogonalLoop=1;jettySize=auto;html=1;exitX=0.5;exitY=1;exitDx=0;exitDy=0;entryX=0.5;entryY=0;entryDx=0;entryDy=0;" edge="1" parent="1" source="HNXHlKbKwTbGvnT8KDBV-83" target="HNXHlKbKwTbGvnT8KDBV-85">
          <mxGeometry relative="1" as="geometry" />
        </mxCell>
        <mxCell id="HNXHlKbKwTbGvnT8KDBV-83" value="User clicks on&lt;br&gt;Transfer button" style="shape=trapezoid;perimeter=trapezoidPerimeter;whiteSpace=wrap;html=1;fixedSize=1;" vertex="1" parent="1">
          <mxGeometry x="760" y="1020" width="120" height="60" as="geometry" />
        </mxCell>
        <mxCell id="HNXHlKbKwTbGvnT8KDBV-88" style="edgeStyle=orthogonalEdgeStyle;rounded=0;orthogonalLoop=1;jettySize=auto;html=1;exitX=1;exitY=0.5;exitDx=0;exitDy=0;entryX=0;entryY=0.5;entryDx=0;entryDy=0;" edge="1" parent="1" source="HNXHlKbKwTbGvnT8KDBV-85" target="HNXHlKbKwTbGvnT8KDBV-87">
          <mxGeometry relative="1" as="geometry" />
        </mxCell>
        <mxCell id="HNXHlKbKwTbGvnT8KDBV-137" style="edgeStyle=orthogonalEdgeStyle;rounded=0;orthogonalLoop=1;jettySize=auto;html=1;exitX=0.5;exitY=1;exitDx=0;exitDy=0;entryX=0.5;entryY=0;entryDx=0;entryDy=0;" edge="1" parent="1" source="HNXHlKbKwTbGvnT8KDBV-85" target="HNXHlKbKwTbGvnT8KDBV-129">
          <mxGeometry relative="1" as="geometry" />
        </mxCell>
        <mxCell id="HNXHlKbKwTbGvnT8KDBV-85" value="Transfer View" style="rounded=0;whiteSpace=wrap;html=1;" vertex="1" parent="1">
          <mxGeometry x="760" y="1185" width="120" height="60" as="geometry" />
        </mxCell>
        <mxCell id="HNXHlKbKwTbGvnT8KDBV-90" style="edgeStyle=orthogonalEdgeStyle;rounded=0;orthogonalLoop=1;jettySize=auto;html=1;exitX=1;exitY=0.5;exitDx=0;exitDy=0;entryX=0;entryY=0.5;entryDx=0;entryDy=0;" edge="1" parent="1" source="HNXHlKbKwTbGvnT8KDBV-87" target="HNXHlKbKwTbGvnT8KDBV-89">
          <mxGeometry relative="1" as="geometry" />
        </mxCell>
        <mxCell id="HNXHlKbKwTbGvnT8KDBV-87" value="User clicks on&lt;br&gt;Make a transaction" style="shape=trapezoid;perimeter=trapezoidPerimeter;whiteSpace=wrap;html=1;fixedSize=1;" vertex="1" parent="1">
          <mxGeometry x="950" y="1185" width="120" height="60" as="geometry" />
        </mxCell>
        <mxCell id="HNXHlKbKwTbGvnT8KDBV-93" style="edgeStyle=orthogonalEdgeStyle;rounded=0;orthogonalLoop=1;jettySize=auto;html=1;exitX=1;exitY=0.5;exitDx=0;exitDy=0;entryX=0.25;entryY=1;entryDx=0;entryDy=0;" edge="1" parent="1" source="HNXHlKbKwTbGvnT8KDBV-89" target="HNXHlKbKwTbGvnT8KDBV-92">
          <mxGeometry relative="1" as="geometry" />
        </mxCell>
        <mxCell id="HNXHlKbKwTbGvnT8KDBV-94" style="edgeStyle=orthogonalEdgeStyle;rounded=0;orthogonalLoop=1;jettySize=auto;html=1;exitX=1;exitY=0.5;exitDx=0;exitDy=0;entryX=0.25;entryY=0;entryDx=0;entryDy=0;" edge="1" parent="1" source="HNXHlKbKwTbGvnT8KDBV-89" target="HNXHlKbKwTbGvnT8KDBV-91">
          <mxGeometry relative="1" as="geometry" />
        </mxCell>
        <mxCell id="HNXHlKbKwTbGvnT8KDBV-135" style="edgeStyle=orthogonalEdgeStyle;rounded=0;orthogonalLoop=1;jettySize=auto;html=1;exitX=0.25;exitY=1;exitDx=0;exitDy=0;entryX=0.5;entryY=0;entryDx=0;entryDy=0;" edge="1" parent="1" source="HNXHlKbKwTbGvnT8KDBV-89" target="HNXHlKbKwTbGvnT8KDBV-129">
          <mxGeometry relative="1" as="geometry" />
        </mxCell>
        <mxCell id="HNXHlKbKwTbGvnT8KDBV-89" value="Transaction view" style="rounded=0;whiteSpace=wrap;html=1;" vertex="1" parent="1">
          <mxGeometry x="1140" y="1185" width="120" height="60" as="geometry" />
        </mxCell>
        <mxCell id="HNXHlKbKwTbGvnT8KDBV-100" style="edgeStyle=orthogonalEdgeStyle;rounded=0;orthogonalLoop=1;jettySize=auto;html=1;exitX=1;exitY=0.5;exitDx=0;exitDy=0;entryX=0;entryY=0.5;entryDx=0;entryDy=0;" edge="1" parent="1" source="HNXHlKbKwTbGvnT8KDBV-91" target="HNXHlKbKwTbGvnT8KDBV-99">
          <mxGeometry relative="1" as="geometry" />
        </mxCell>
        <mxCell id="HNXHlKbKwTbGvnT8KDBV-91" value="User clicks on&lt;br&gt;Debit card option" style="shape=trapezoid;perimeter=trapezoidPerimeter;whiteSpace=wrap;html=1;fixedSize=1;" vertex="1" parent="1">
          <mxGeometry x="1310" y="1260" width="120" height="60" as="geometry" />
        </mxCell>
        <mxCell id="HNXHlKbKwTbGvnT8KDBV-96" style="edgeStyle=orthogonalEdgeStyle;rounded=0;orthogonalLoop=1;jettySize=auto;html=1;exitX=1;exitY=0.5;exitDx=0;exitDy=0;entryX=0;entryY=0.5;entryDx=0;entryDy=0;" edge="1" parent="1" source="HNXHlKbKwTbGvnT8KDBV-92" target="HNXHlKbKwTbGvnT8KDBV-95">
          <mxGeometry relative="1" as="geometry" />
        </mxCell>
        <mxCell id="HNXHlKbKwTbGvnT8KDBV-92" value="User clicks on&lt;br&gt;Debit card option" style="shape=trapezoid;perimeter=trapezoidPerimeter;whiteSpace=wrap;html=1;fixedSize=1;" vertex="1" parent="1">
          <mxGeometry x="1310" y="1109" width="120" height="60" as="geometry" />
        </mxCell>
        <mxCell id="HNXHlKbKwTbGvnT8KDBV-105" style="edgeStyle=orthogonalEdgeStyle;rounded=0;orthogonalLoop=1;jettySize=auto;html=1;exitX=0.5;exitY=0;exitDx=0;exitDy=0;entryX=1;entryY=0.5;entryDx=0;entryDy=0;" edge="1" parent="1" source="HNXHlKbKwTbGvnT8KDBV-95" target="HNXHlKbKwTbGvnT8KDBV-102">
          <mxGeometry relative="1" as="geometry" />
        </mxCell>
        <mxCell id="HNXHlKbKwTbGvnT8KDBV-108" style="edgeStyle=orthogonalEdgeStyle;rounded=0;orthogonalLoop=1;jettySize=auto;html=1;exitX=1;exitY=0.5;exitDx=0;exitDy=0;entryX=0;entryY=0.5;entryDx=0;entryDy=0;" edge="1" parent="1" source="HNXHlKbKwTbGvnT8KDBV-95" target="HNXHlKbKwTbGvnT8KDBV-107">
          <mxGeometry relative="1" as="geometry" />
        </mxCell>
        <mxCell id="HNXHlKbKwTbGvnT8KDBV-95" value="Has money in it?" style="rhombus;whiteSpace=wrap;html=1;" vertex="1" parent="1">
          <mxGeometry x="1460" y="1099" width="80" height="80" as="geometry" />
        </mxCell>
        <mxCell id="HNXHlKbKwTbGvnT8KDBV-103" style="edgeStyle=orthogonalEdgeStyle;rounded=0;orthogonalLoop=1;jettySize=auto;html=1;exitX=0.5;exitY=1;exitDx=0;exitDy=0;entryX=1;entryY=0.5;entryDx=0;entryDy=0;" edge="1" parent="1" source="HNXHlKbKwTbGvnT8KDBV-99" target="HNXHlKbKwTbGvnT8KDBV-101">
          <mxGeometry relative="1" as="geometry" />
        </mxCell>
        <mxCell id="HNXHlKbKwTbGvnT8KDBV-110" style="edgeStyle=orthogonalEdgeStyle;rounded=0;orthogonalLoop=1;jettySize=auto;html=1;exitX=1;exitY=0.5;exitDx=0;exitDy=0;entryX=0;entryY=0.5;entryDx=0;entryDy=0;" edge="1" parent="1" source="HNXHlKbKwTbGvnT8KDBV-99" target="HNXHlKbKwTbGvnT8KDBV-109">
          <mxGeometry relative="1" as="geometry" />
        </mxCell>
        <mxCell id="HNXHlKbKwTbGvnT8KDBV-99" value="Has money in it?" style="rhombus;whiteSpace=wrap;html=1;" vertex="1" parent="1">
          <mxGeometry x="1460" y="1250" width="80" height="80" as="geometry" />
        </mxCell>
        <mxCell id="HNXHlKbKwTbGvnT8KDBV-104" style="edgeStyle=orthogonalEdgeStyle;rounded=0;orthogonalLoop=1;jettySize=auto;html=1;exitX=0;exitY=0.5;exitDx=0;exitDy=0;entryX=0.5;entryY=1;entryDx=0;entryDy=0;" edge="1" parent="1" source="HNXHlKbKwTbGvnT8KDBV-101" target="HNXHlKbKwTbGvnT8KDBV-89">
          <mxGeometry relative="1" as="geometry" />
        </mxCell>
        <mxCell id="HNXHlKbKwTbGvnT8KDBV-101" value="No" style="text;html=1;strokeColor=none;fillColor=none;align=center;verticalAlign=middle;whiteSpace=wrap;rounded=0;" vertex="1" parent="1">
          <mxGeometry x="1420" y="1350" width="60" height="30" as="geometry" />
        </mxCell>
        <mxCell id="HNXHlKbKwTbGvnT8KDBV-106" style="edgeStyle=orthogonalEdgeStyle;rounded=0;orthogonalLoop=1;jettySize=auto;html=1;exitX=0;exitY=0.5;exitDx=0;exitDy=0;entryX=0.5;entryY=0;entryDx=0;entryDy=0;" edge="1" parent="1" source="HNXHlKbKwTbGvnT8KDBV-102" target="HNXHlKbKwTbGvnT8KDBV-89">
          <mxGeometry relative="1" as="geometry" />
        </mxCell>
        <mxCell id="HNXHlKbKwTbGvnT8KDBV-102" value="No" style="text;html=1;strokeColor=none;fillColor=none;align=center;verticalAlign=middle;whiteSpace=wrap;rounded=0;" vertex="1" parent="1">
          <mxGeometry x="1420" y="1040" width="60" height="30" as="geometry" />
        </mxCell>
        <mxCell id="HNXHlKbKwTbGvnT8KDBV-112" style="edgeStyle=orthogonalEdgeStyle;rounded=0;orthogonalLoop=1;jettySize=auto;html=1;exitX=1;exitY=0.5;exitDx=0;exitDy=0;entryX=0;entryY=0.5;entryDx=0;entryDy=0;" edge="1" parent="1" source="HNXHlKbKwTbGvnT8KDBV-107" target="HNXHlKbKwTbGvnT8KDBV-111">
          <mxGeometry relative="1" as="geometry" />
        </mxCell>
        <mxCell id="HNXHlKbKwTbGvnT8KDBV-107" value="Yes" style="text;html=1;strokeColor=none;fillColor=none;align=center;verticalAlign=middle;whiteSpace=wrap;rounded=0;" vertex="1" parent="1">
          <mxGeometry x="1580" y="1124" width="60" height="30" as="geometry" />
        </mxCell>
        <mxCell id="HNXHlKbKwTbGvnT8KDBV-114" style="edgeStyle=orthogonalEdgeStyle;rounded=0;orthogonalLoop=1;jettySize=auto;html=1;exitX=1;exitY=0.5;exitDx=0;exitDy=0;entryX=0;entryY=0.5;entryDx=0;entryDy=0;" edge="1" parent="1" source="HNXHlKbKwTbGvnT8KDBV-109" target="HNXHlKbKwTbGvnT8KDBV-111">
          <mxGeometry relative="1" as="geometry" />
        </mxCell>
        <mxCell id="HNXHlKbKwTbGvnT8KDBV-109" value="Yes" style="text;html=1;strokeColor=none;fillColor=none;align=center;verticalAlign=middle;whiteSpace=wrap;rounded=0;" vertex="1" parent="1">
          <mxGeometry x="1580" y="1275" width="60" height="30" as="geometry" />
        </mxCell>
        <mxCell id="HNXHlKbKwTbGvnT8KDBV-117" style="edgeStyle=orthogonalEdgeStyle;rounded=0;orthogonalLoop=1;jettySize=auto;html=1;exitX=1;exitY=0.5;exitDx=0;exitDy=0;entryX=0;entryY=0.5;entryDx=0;entryDy=0;" edge="1" parent="1" source="HNXHlKbKwTbGvnT8KDBV-111" target="HNXHlKbKwTbGvnT8KDBV-115">
          <mxGeometry relative="1" as="geometry" />
        </mxCell>
        <mxCell id="HNXHlKbKwTbGvnT8KDBV-134" style="edgeStyle=orthogonalEdgeStyle;rounded=0;orthogonalLoop=1;jettySize=auto;html=1;exitX=0.5;exitY=1;exitDx=0;exitDy=0;entryX=0.5;entryY=0;entryDx=0;entryDy=0;" edge="1" parent="1" source="HNXHlKbKwTbGvnT8KDBV-111" target="HNXHlKbKwTbGvnT8KDBV-129">
          <mxGeometry relative="1" as="geometry">
            <mxPoint x="1740" y="1420.0000000000005" as="targetPoint" />
            <Array as="points">
              <mxPoint x="1740" y="1380" />
              <mxPoint x="760" y="1380" />
            </Array>
          </mxGeometry>
        </mxCell>
        <mxCell id="HNXHlKbKwTbGvnT8KDBV-111" value="Reviever View" style="rounded=0;whiteSpace=wrap;html=1;" vertex="1" parent="1">
          <mxGeometry x="1680" y="1185" width="120" height="60" as="geometry" />
        </mxCell>
        <mxCell id="HNXHlKbKwTbGvnT8KDBV-119" style="edgeStyle=orthogonalEdgeStyle;rounded=0;orthogonalLoop=1;jettySize=auto;html=1;exitX=1;exitY=0.5;exitDx=0;exitDy=0;entryX=0;entryY=0.5;entryDx=0;entryDy=0;" edge="1" parent="1" source="HNXHlKbKwTbGvnT8KDBV-115" target="HNXHlKbKwTbGvnT8KDBV-118">
          <mxGeometry relative="1" as="geometry" />
        </mxCell>
        <mxCell id="HNXHlKbKwTbGvnT8KDBV-115" value="User sends filled&lt;br&gt;form" style="shape=trapezoid;perimeter=trapezoidPerimeter;whiteSpace=wrap;html=1;fixedSize=1;" vertex="1" parent="1">
          <mxGeometry x="1910" y="1185" width="120" height="60" as="geometry" />
        </mxCell>
        <mxCell id="HNXHlKbKwTbGvnT8KDBV-123" style="edgeStyle=orthogonalEdgeStyle;rounded=0;orthogonalLoop=1;jettySize=auto;html=1;exitX=0.5;exitY=0;exitDx=0;exitDy=0;entryX=1;entryY=0.5;entryDx=0;entryDy=0;" edge="1" parent="1" source="HNXHlKbKwTbGvnT8KDBV-118" target="HNXHlKbKwTbGvnT8KDBV-121">
          <mxGeometry relative="1" as="geometry" />
        </mxCell>
        <mxCell id="HNXHlKbKwTbGvnT8KDBV-126" style="edgeStyle=orthogonalEdgeStyle;rounded=0;orthogonalLoop=1;jettySize=auto;html=1;exitX=1;exitY=0.5;exitDx=0;exitDy=0;entryX=0;entryY=0.5;entryDx=0;entryDy=0;" edge="1" parent="1" source="HNXHlKbKwTbGvnT8KDBV-118" target="HNXHlKbKwTbGvnT8KDBV-125">
          <mxGeometry relative="1" as="geometry" />
        </mxCell>
        <mxCell id="HNXHlKbKwTbGvnT8KDBV-118" value="User exists/&lt;br&gt;No errors" style="rhombus;whiteSpace=wrap;html=1;" vertex="1" parent="1">
          <mxGeometry x="2080" y="1175" width="80" height="80" as="geometry" />
        </mxCell>
        <mxCell id="HNXHlKbKwTbGvnT8KDBV-124" style="edgeStyle=orthogonalEdgeStyle;rounded=0;orthogonalLoop=1;jettySize=auto;html=1;exitX=0;exitY=0.5;exitDx=0;exitDy=0;entryX=0.5;entryY=0;entryDx=0;entryDy=0;" edge="1" parent="1" source="HNXHlKbKwTbGvnT8KDBV-121" target="HNXHlKbKwTbGvnT8KDBV-111">
          <mxGeometry relative="1" as="geometry" />
        </mxCell>
        <mxCell id="HNXHlKbKwTbGvnT8KDBV-121" value="No" style="text;html=1;strokeColor=none;fillColor=none;align=center;verticalAlign=middle;whiteSpace=wrap;rounded=0;" vertex="1" parent="1">
          <mxGeometry x="2020" y="1124" width="60" height="30" as="geometry" />
        </mxCell>
        <mxCell id="HNXHlKbKwTbGvnT8KDBV-128" style="edgeStyle=orthogonalEdgeStyle;rounded=0;orthogonalLoop=1;jettySize=auto;html=1;exitX=1;exitY=0.5;exitDx=0;exitDy=0;entryX=0;entryY=0.5;entryDx=0;entryDy=0;" edge="1" parent="1" source="HNXHlKbKwTbGvnT8KDBV-125" target="HNXHlKbKwTbGvnT8KDBV-127">
          <mxGeometry relative="1" as="geometry" />
        </mxCell>
        <mxCell id="HNXHlKbKwTbGvnT8KDBV-125" value="Yes" style="text;html=1;strokeColor=none;fillColor=none;align=center;verticalAlign=middle;whiteSpace=wrap;rounded=0;" vertex="1" parent="1">
          <mxGeometry x="2220" y="1200" width="60" height="30" as="geometry" />
        </mxCell>
        <mxCell id="HNXHlKbKwTbGvnT8KDBV-133" style="edgeStyle=orthogonalEdgeStyle;rounded=0;orthogonalLoop=1;jettySize=auto;html=1;exitX=0.5;exitY=1;exitDx=0;exitDy=0;entryX=0.5;entryY=0;entryDx=0;entryDy=0;" edge="1" parent="1" source="HNXHlKbKwTbGvnT8KDBV-127" target="HNXHlKbKwTbGvnT8KDBV-129">
          <mxGeometry relative="1" as="geometry">
            <mxPoint x="2380" y="1420.0000000000005" as="targetPoint" />
            <Array as="points">
              <mxPoint x="2380" y="1380" />
              <mxPoint x="760" y="1380" />
            </Array>
          </mxGeometry>
        </mxCell>
        <mxCell id="HNXHlKbKwTbGvnT8KDBV-127" value="Successful transaction&lt;br&gt;View" style="rounded=0;whiteSpace=wrap;html=1;" vertex="1" parent="1">
          <mxGeometry x="2320" y="1185" width="120" height="60" as="geometry" />
        </mxCell>
        <mxCell id="HNXHlKbKwTbGvnT8KDBV-163" style="edgeStyle=orthogonalEdgeStyle;rounded=0;orthogonalLoop=1;jettySize=auto;html=1;exitX=0;exitY=0;exitDx=0;exitDy=0;entryX=0.25;entryY=1;entryDx=0;entryDy=0;" edge="1" parent="1" source="HNXHlKbKwTbGvnT8KDBV-129" target="HNXHlKbKwTbGvnT8KDBV-66">
          <mxGeometry relative="1" as="geometry">
            <mxPoint x="640" y="980" as="targetPoint" />
            <Array as="points">
              <mxPoint x="710" y="1409" />
            </Array>
          </mxGeometry>
        </mxCell>
        <mxCell id="HNXHlKbKwTbGvnT8KDBV-129" value="User clicks on&lt;br&gt;go back Home&lt;br&gt;Button" style="shape=trapezoid;perimeter=trapezoidPerimeter;whiteSpace=wrap;html=1;fixedSize=1;" vertex="1" parent="1">
          <mxGeometry x="700" y="1400" width="120" height="60" as="geometry" />
        </mxCell>
        <mxCell id="HNXHlKbKwTbGvnT8KDBV-143" style="edgeStyle=orthogonalEdgeStyle;rounded=0;orthogonalLoop=1;jettySize=auto;html=1;exitX=0;exitY=0.5;exitDx=0;exitDy=0;entryX=0.25;entryY=1;entryDx=0;entryDy=0;" edge="1" parent="1" source="HNXHlKbKwTbGvnT8KDBV-142" target="HNXHlKbKwTbGvnT8KDBV-66">
          <mxGeometry relative="1" as="geometry" />
        </mxCell>
        <mxCell id="HNXHlKbKwTbGvnT8KDBV-142" value="User clicks on&lt;br&gt;go back Home&lt;br&gt;Button" style="shape=trapezoid;perimeter=trapezoidPerimeter;whiteSpace=wrap;html=1;fixedSize=1;" vertex="1" parent="1">
          <mxGeometry x="1110" y="960" width="120" height="60" as="geometry" />
        </mxCell>
        <mxCell id="HNXHlKbKwTbGvnT8KDBV-158" style="edgeStyle=orthogonalEdgeStyle;rounded=0;orthogonalLoop=1;jettySize=auto;html=1;exitX=0.5;exitY=1;exitDx=0;exitDy=0;entryX=0.5;entryY=0;entryDx=0;entryDy=0;" edge="1" parent="1" source="HNXHlKbKwTbGvnT8KDBV-145" target="HNXHlKbKwTbGvnT8KDBV-147">
          <mxGeometry relative="1" as="geometry" />
        </mxCell>
        <mxCell id="HNXHlKbKwTbGvnT8KDBV-145" value="User clicks on&lt;br&gt;Credit Card Button" style="shape=trapezoid;perimeter=trapezoidPerimeter;whiteSpace=wrap;html=1;fixedSize=1;" vertex="1" parent="1">
          <mxGeometry x="1410" y="840" width="120" height="60" as="geometry" />
        </mxCell>
        <mxCell id="HNXHlKbKwTbGvnT8KDBV-211" style="edgeStyle=orthogonalEdgeStyle;rounded=0;orthogonalLoop=1;jettySize=auto;html=1;exitX=0.25;exitY=1;exitDx=0;exitDy=0;entryX=1;entryY=0.75;entryDx=0;entryDy=0;" edge="1" parent="1" source="HNXHlKbKwTbGvnT8KDBV-147" target="HNXHlKbKwTbGvnT8KDBV-209">
          <mxGeometry relative="1" as="geometry" />
        </mxCell>
        <mxCell id="HNXHlKbKwTbGvnT8KDBV-215" style="edgeStyle=orthogonalEdgeStyle;rounded=0;orthogonalLoop=1;jettySize=auto;html=1;exitX=1;exitY=1;exitDx=0;exitDy=0;entryX=1;entryY=1;entryDx=0;entryDy=0;" edge="1" parent="1" source="HNXHlKbKwTbGvnT8KDBV-147" target="HNXHlKbKwTbGvnT8KDBV-142">
          <mxGeometry relative="1" as="geometry" />
        </mxCell>
        <mxCell id="HNXHlKbKwTbGvnT8KDBV-147" value="Credit Card View" style="rounded=0;whiteSpace=wrap;html=1;" vertex="1" parent="1">
          <mxGeometry x="1410" y="920" width="120" height="60" as="geometry" />
        </mxCell>
        <mxCell id="HNXHlKbKwTbGvnT8KDBV-159" style="edgeStyle=orthogonalEdgeStyle;rounded=0;orthogonalLoop=1;jettySize=auto;html=1;exitX=1;exitY=0.5;exitDx=0;exitDy=0;" edge="1" parent="1" source="HNXHlKbKwTbGvnT8KDBV-148" target="HNXHlKbKwTbGvnT8KDBV-149">
          <mxGeometry relative="1" as="geometry" />
        </mxCell>
        <mxCell id="HNXHlKbKwTbGvnT8KDBV-148" value="User clicks on&lt;br&gt;Credit Card Button" style="shape=trapezoid;perimeter=trapezoidPerimeter;whiteSpace=wrap;html=1;fixedSize=1;" vertex="1" parent="1">
          <mxGeometry x="1260" y="720" width="120" height="60" as="geometry" />
        </mxCell>
        <mxCell id="HNXHlKbKwTbGvnT8KDBV-161" style="edgeStyle=orthogonalEdgeStyle;rounded=0;orthogonalLoop=1;jettySize=auto;html=1;exitX=1;exitY=1;exitDx=0;exitDy=0;entryX=1;entryY=1;entryDx=0;entryDy=0;" edge="1" parent="1" source="HNXHlKbKwTbGvnT8KDBV-149" target="HNXHlKbKwTbGvnT8KDBV-142">
          <mxGeometry relative="1" as="geometry" />
        </mxCell>
        <mxCell id="HNXHlKbKwTbGvnT8KDBV-213" style="edgeStyle=orthogonalEdgeStyle;rounded=0;orthogonalLoop=1;jettySize=auto;html=1;exitX=0.25;exitY=1;exitDx=0;exitDy=0;entryX=1;entryY=0.75;entryDx=0;entryDy=0;" edge="1" parent="1" source="HNXHlKbKwTbGvnT8KDBV-149" target="HNXHlKbKwTbGvnT8KDBV-209">
          <mxGeometry relative="1" as="geometry" />
        </mxCell>
        <mxCell id="HNXHlKbKwTbGvnT8KDBV-149" value="Debit Card View" style="rounded=0;whiteSpace=wrap;html=1;" vertex="1" parent="1">
          <mxGeometry x="1590" y="920" width="120" height="60" as="geometry" />
        </mxCell>
        <mxCell id="HNXHlKbKwTbGvnT8KDBV-175" style="edgeStyle=orthogonalEdgeStyle;rounded=0;orthogonalLoop=1;jettySize=auto;html=1;exitX=1;exitY=0.5;exitDx=0;exitDy=0;entryX=0;entryY=0.5;entryDx=0;entryDy=0;" edge="1" parent="1" source="HNXHlKbKwTbGvnT8KDBV-165" target="HNXHlKbKwTbGvnT8KDBV-174">
          <mxGeometry relative="1" as="geometry" />
        </mxCell>
        <mxCell id="HNXHlKbKwTbGvnT8KDBV-165" value="User clicks on&lt;br&gt;Withdraw Money&lt;br&gt;Button" style="shape=trapezoid;perimeter=trapezoidPerimeter;whiteSpace=wrap;html=1;fixedSize=1;" vertex="1" parent="1">
          <mxGeometry x="1060" y="610" width="120" height="60" as="geometry" />
        </mxCell>
        <mxCell id="HNXHlKbKwTbGvnT8KDBV-170" style="edgeStyle=orthogonalEdgeStyle;rounded=0;orthogonalLoop=1;jettySize=auto;html=1;exitX=0.5;exitY=1;exitDx=0;exitDy=0;entryX=0.25;entryY=0;entryDx=0;entryDy=0;" edge="1" parent="1" source="HNXHlKbKwTbGvnT8KDBV-168" target="HNXHlKbKwTbGvnT8KDBV-66">
          <mxGeometry relative="1" as="geometry" />
        </mxCell>
        <mxCell id="HNXHlKbKwTbGvnT8KDBV-168" value="User clicks on&lt;br&gt;go back Home&lt;br&gt;Button" style="shape=trapezoid;perimeter=trapezoidPerimeter;whiteSpace=wrap;html=1;fixedSize=1;" vertex="1" parent="1">
          <mxGeometry x="650" y="660" width="120" height="60" as="geometry" />
        </mxCell>
        <mxCell id="HNXHlKbKwTbGvnT8KDBV-178" style="edgeStyle=orthogonalEdgeStyle;rounded=0;orthogonalLoop=1;jettySize=auto;html=1;exitX=0;exitY=0.5;exitDx=0;exitDy=0;entryX=1;entryY=0.5;entryDx=0;entryDy=0;" edge="1" parent="1" source="HNXHlKbKwTbGvnT8KDBV-171" target="HNXHlKbKwTbGvnT8KDBV-168">
          <mxGeometry relative="1" as="geometry">
            <Array as="points">
              <mxPoint x="1060" y="500" />
              <mxPoint x="910" y="500" />
              <mxPoint x="910" y="690" />
            </Array>
          </mxGeometry>
        </mxCell>
        <mxCell id="HNXHlKbKwTbGvnT8KDBV-185" style="edgeStyle=orthogonalEdgeStyle;rounded=0;orthogonalLoop=1;jettySize=auto;html=1;exitX=1;exitY=0.5;exitDx=0;exitDy=0;entryX=0;entryY=0.5;entryDx=0;entryDy=0;" edge="1" parent="1" source="HNXHlKbKwTbGvnT8KDBV-171" target="HNXHlKbKwTbGvnT8KDBV-184">
          <mxGeometry relative="1" as="geometry" />
        </mxCell>
        <mxCell id="HNXHlKbKwTbGvnT8KDBV-171" value="Deposit View" style="rounded=0;whiteSpace=wrap;html=1;" vertex="1" parent="1">
          <mxGeometry x="1060" y="410" width="120" height="60" as="geometry" />
        </mxCell>
        <mxCell id="HNXHlKbKwTbGvnT8KDBV-176" style="edgeStyle=orthogonalEdgeStyle;rounded=0;orthogonalLoop=1;jettySize=auto;html=1;exitX=0.25;exitY=1;exitDx=0;exitDy=0;entryX=1;entryY=0.5;entryDx=0;entryDy=0;" edge="1" parent="1" source="HNXHlKbKwTbGvnT8KDBV-174" target="HNXHlKbKwTbGvnT8KDBV-168">
          <mxGeometry relative="1" as="geometry" />
        </mxCell>
        <mxCell id="HNXHlKbKwTbGvnT8KDBV-180" style="edgeStyle=orthogonalEdgeStyle;rounded=0;orthogonalLoop=1;jettySize=auto;html=1;exitX=1;exitY=0.5;exitDx=0;exitDy=0;entryX=0;entryY=0.5;entryDx=0;entryDy=0;" edge="1" parent="1" source="HNXHlKbKwTbGvnT8KDBV-174" target="HNXHlKbKwTbGvnT8KDBV-179">
          <mxGeometry relative="1" as="geometry" />
        </mxCell>
        <mxCell id="HNXHlKbKwTbGvnT8KDBV-174" value="Withdraw View" style="rounded=0;whiteSpace=wrap;html=1;" vertex="1" parent="1">
          <mxGeometry x="1250" y="610" width="120" height="60" as="geometry" />
        </mxCell>
        <mxCell id="HNXHlKbKwTbGvnT8KDBV-182" style="edgeStyle=orthogonalEdgeStyle;rounded=0;orthogonalLoop=1;jettySize=auto;html=1;exitX=0.5;exitY=0;exitDx=0;exitDy=0;entryX=0.5;entryY=1;entryDx=0;entryDy=0;" edge="1" parent="1" source="HNXHlKbKwTbGvnT8KDBV-179" target="HNXHlKbKwTbGvnT8KDBV-181">
          <mxGeometry relative="1" as="geometry" />
        </mxCell>
        <mxCell id="HNXHlKbKwTbGvnT8KDBV-192" style="edgeStyle=orthogonalEdgeStyle;rounded=0;orthogonalLoop=1;jettySize=auto;html=1;exitX=1;exitY=0.5;exitDx=0;exitDy=0;entryX=0;entryY=0.5;entryDx=0;entryDy=0;" edge="1" parent="1" source="HNXHlKbKwTbGvnT8KDBV-179" target="HNXHlKbKwTbGvnT8KDBV-191">
          <mxGeometry relative="1" as="geometry" />
        </mxCell>
        <mxCell id="HNXHlKbKwTbGvnT8KDBV-179" value="Successful&lt;br&gt;Withdraw" style="rhombus;whiteSpace=wrap;html=1;" vertex="1" parent="1">
          <mxGeometry x="1450" y="600" width="80" height="80" as="geometry" />
        </mxCell>
        <mxCell id="HNXHlKbKwTbGvnT8KDBV-183" style="edgeStyle=orthogonalEdgeStyle;rounded=0;orthogonalLoop=1;jettySize=auto;html=1;exitX=0;exitY=0.5;exitDx=0;exitDy=0;entryX=0.5;entryY=0;entryDx=0;entryDy=0;" edge="1" parent="1" source="HNXHlKbKwTbGvnT8KDBV-181" target="HNXHlKbKwTbGvnT8KDBV-174">
          <mxGeometry relative="1" as="geometry" />
        </mxCell>
        <mxCell id="HNXHlKbKwTbGvnT8KDBV-181" value="No" style="text;html=1;strokeColor=none;fillColor=none;align=center;verticalAlign=middle;whiteSpace=wrap;rounded=0;" vertex="1" parent="1">
          <mxGeometry x="1460" y="530" width="60" height="30" as="geometry" />
        </mxCell>
        <mxCell id="HNXHlKbKwTbGvnT8KDBV-187" style="edgeStyle=orthogonalEdgeStyle;rounded=0;orthogonalLoop=1;jettySize=auto;html=1;exitX=0.5;exitY=0;exitDx=0;exitDy=0;entryX=0.5;entryY=1;entryDx=0;entryDy=0;" edge="1" parent="1" source="HNXHlKbKwTbGvnT8KDBV-184" target="HNXHlKbKwTbGvnT8KDBV-186">
          <mxGeometry relative="1" as="geometry" />
        </mxCell>
        <mxCell id="HNXHlKbKwTbGvnT8KDBV-190" style="edgeStyle=orthogonalEdgeStyle;rounded=0;orthogonalLoop=1;jettySize=auto;html=1;exitX=1;exitY=0.5;exitDx=0;exitDy=0;entryX=0;entryY=0.5;entryDx=0;entryDy=0;" edge="1" parent="1" source="HNXHlKbKwTbGvnT8KDBV-184" target="HNXHlKbKwTbGvnT8KDBV-189">
          <mxGeometry relative="1" as="geometry" />
        </mxCell>
        <mxCell id="HNXHlKbKwTbGvnT8KDBV-184" value="Successful&lt;br&gt;Deposit" style="rhombus;whiteSpace=wrap;html=1;" vertex="1" parent="1">
          <mxGeometry x="1220" y="400" width="80" height="80" as="geometry" />
        </mxCell>
        <mxCell id="HNXHlKbKwTbGvnT8KDBV-188" style="edgeStyle=orthogonalEdgeStyle;rounded=0;orthogonalLoop=1;jettySize=auto;html=1;exitX=0;exitY=0.5;exitDx=0;exitDy=0;entryX=0.5;entryY=0;entryDx=0;entryDy=0;" edge="1" parent="1" source="HNXHlKbKwTbGvnT8KDBV-186" target="HNXHlKbKwTbGvnT8KDBV-171">
          <mxGeometry relative="1" as="geometry" />
        </mxCell>
        <mxCell id="HNXHlKbKwTbGvnT8KDBV-186" value="No" style="text;html=1;strokeColor=none;fillColor=none;align=center;verticalAlign=middle;whiteSpace=wrap;rounded=0;" vertex="1" parent="1">
          <mxGeometry x="1230" y="340" width="60" height="30" as="geometry" />
        </mxCell>
        <mxCell id="HNXHlKbKwTbGvnT8KDBV-194" style="edgeStyle=orthogonalEdgeStyle;rounded=0;orthogonalLoop=1;jettySize=auto;html=1;exitX=1;exitY=0.5;exitDx=0;exitDy=0;entryX=0.25;entryY=0;entryDx=0;entryDy=0;" edge="1" parent="1" source="HNXHlKbKwTbGvnT8KDBV-189" target="HNXHlKbKwTbGvnT8KDBV-69">
          <mxGeometry relative="1" as="geometry">
            <Array as="points">
              <mxPoint x="1640" y="440" />
              <mxPoint x="1640" y="710" />
              <mxPoint x="1200" y="710" />
            </Array>
          </mxGeometry>
        </mxCell>
        <mxCell id="HNXHlKbKwTbGvnT8KDBV-189" value="Yes" style="text;html=1;strokeColor=none;fillColor=none;align=center;verticalAlign=middle;whiteSpace=wrap;rounded=0;" vertex="1" parent="1">
          <mxGeometry x="1340" y="425" width="60" height="30" as="geometry" />
        </mxCell>
        <mxCell id="HNXHlKbKwTbGvnT8KDBV-193" style="edgeStyle=orthogonalEdgeStyle;rounded=0;orthogonalLoop=1;jettySize=auto;html=1;exitX=0.5;exitY=1;exitDx=0;exitDy=0;entryX=0.25;entryY=0;entryDx=0;entryDy=0;" edge="1" parent="1" source="HNXHlKbKwTbGvnT8KDBV-191" target="HNXHlKbKwTbGvnT8KDBV-69">
          <mxGeometry relative="1" as="geometry">
            <Array as="points">
              <mxPoint x="1600" y="710" />
              <mxPoint x="1200" y="710" />
            </Array>
          </mxGeometry>
        </mxCell>
        <mxCell id="HNXHlKbKwTbGvnT8KDBV-191" value="Yes" style="text;html=1;strokeColor=none;fillColor=none;align=center;verticalAlign=middle;whiteSpace=wrap;rounded=0;" vertex="1" parent="1">
          <mxGeometry x="1570" y="625" width="60" height="30" as="geometry" />
        </mxCell>
        <mxCell id="HNXHlKbKwTbGvnT8KDBV-199" style="edgeStyle=orthogonalEdgeStyle;rounded=0;orthogonalLoop=1;jettySize=auto;html=1;exitX=0.5;exitY=0;exitDx=0;exitDy=0;entryX=0.5;entryY=1;entryDx=0;entryDy=0;" edge="1" parent="1" source="HNXHlKbKwTbGvnT8KDBV-195" target="HNXHlKbKwTbGvnT8KDBV-198">
          <mxGeometry relative="1" as="geometry" />
        </mxCell>
        <mxCell id="HNXHlKbKwTbGvnT8KDBV-195" value="Update Profile View" style="rounded=0;whiteSpace=wrap;html=1;" vertex="1" parent="1">
          <mxGeometry x="760" y="310" width="120" height="60" as="geometry" />
        </mxCell>
        <mxCell id="HNXHlKbKwTbGvnT8KDBV-201" style="edgeStyle=orthogonalEdgeStyle;rounded=0;orthogonalLoop=1;jettySize=auto;html=1;exitX=0;exitY=0.5;exitDx=0;exitDy=0;entryX=1;entryY=0.5;entryDx=0;entryDy=0;" edge="1" parent="1" source="HNXHlKbKwTbGvnT8KDBV-198" target="HNXHlKbKwTbGvnT8KDBV-200">
          <mxGeometry relative="1" as="geometry" />
        </mxCell>
        <mxCell id="HNXHlKbKwTbGvnT8KDBV-198" value="User sends&lt;br&gt;filled Form" style="shape=trapezoid;perimeter=trapezoidPerimeter;whiteSpace=wrap;html=1;fixedSize=1;" vertex="1" parent="1">
          <mxGeometry x="760" y="200" width="120" height="60" as="geometry" />
        </mxCell>
        <mxCell id="HNXHlKbKwTbGvnT8KDBV-203" style="edgeStyle=orthogonalEdgeStyle;rounded=0;orthogonalLoop=1;jettySize=auto;html=1;exitX=0.5;exitY=1;exitDx=0;exitDy=0;entryX=0.5;entryY=0;entryDx=0;entryDy=0;" edge="1" parent="1" source="HNXHlKbKwTbGvnT8KDBV-200" target="HNXHlKbKwTbGvnT8KDBV-202">
          <mxGeometry relative="1" as="geometry" />
        </mxCell>
        <mxCell id="HNXHlKbKwTbGvnT8KDBV-206" style="edgeStyle=orthogonalEdgeStyle;rounded=0;orthogonalLoop=1;jettySize=auto;html=1;exitX=0;exitY=0.5;exitDx=0;exitDy=0;entryX=1;entryY=0.5;entryDx=0;entryDy=0;" edge="1" parent="1" source="HNXHlKbKwTbGvnT8KDBV-200" target="HNXHlKbKwTbGvnT8KDBV-205">
          <mxGeometry relative="1" as="geometry" />
        </mxCell>
        <mxCell id="HNXHlKbKwTbGvnT8KDBV-200" value="Successful&lt;br&gt;update" style="rhombus;whiteSpace=wrap;html=1;" vertex="1" parent="1">
          <mxGeometry x="610" y="190" width="80" height="80" as="geometry" />
        </mxCell>
        <mxCell id="HNXHlKbKwTbGvnT8KDBV-204" style="edgeStyle=orthogonalEdgeStyle;rounded=0;orthogonalLoop=1;jettySize=auto;html=1;exitX=1;exitY=0.5;exitDx=0;exitDy=0;entryX=0;entryY=0.5;entryDx=0;entryDy=0;" edge="1" parent="1" source="HNXHlKbKwTbGvnT8KDBV-202" target="HNXHlKbKwTbGvnT8KDBV-195">
          <mxGeometry relative="1" as="geometry" />
        </mxCell>
        <mxCell id="HNXHlKbKwTbGvnT8KDBV-202" value="No" style="text;html=1;strokeColor=none;fillColor=none;align=center;verticalAlign=middle;whiteSpace=wrap;rounded=0;" vertex="1" parent="1">
          <mxGeometry x="620" y="325" width="60" height="30" as="geometry" />
        </mxCell>
        <mxCell id="HNXHlKbKwTbGvnT8KDBV-207" style="edgeStyle=orthogonalEdgeStyle;rounded=0;orthogonalLoop=1;jettySize=auto;html=1;exitX=0;exitY=0.5;exitDx=0;exitDy=0;entryX=0.25;entryY=0;entryDx=0;entryDy=0;" edge="1" parent="1" source="HNXHlKbKwTbGvnT8KDBV-205" target="HNXHlKbKwTbGvnT8KDBV-37">
          <mxGeometry relative="1" as="geometry" />
        </mxCell>
        <mxCell id="HNXHlKbKwTbGvnT8KDBV-205" value="Yes" style="text;html=1;strokeColor=none;fillColor=none;align=center;verticalAlign=middle;whiteSpace=wrap;rounded=0;" vertex="1" parent="1">
          <mxGeometry x="520" y="215" width="60" height="30" as="geometry" />
        </mxCell>
        <mxCell id="HNXHlKbKwTbGvnT8KDBV-210" style="edgeStyle=orthogonalEdgeStyle;rounded=0;orthogonalLoop=1;jettySize=auto;html=1;exitX=0.5;exitY=0;exitDx=0;exitDy=0;entryX=1;entryY=1;entryDx=0;entryDy=0;" edge="1" parent="1" source="HNXHlKbKwTbGvnT8KDBV-209" target="HNXHlKbKwTbGvnT8KDBV-69">
          <mxGeometry relative="1" as="geometry" />
        </mxCell>
        <mxCell id="HNXHlKbKwTbGvnT8KDBV-209" value="User clicks on&lt;br&gt;go back to&lt;br&gt;Balances view&lt;br&gt;Button" style="shape=trapezoid;perimeter=trapezoidPerimeter;whiteSpace=wrap;html=1;fixedSize=1;" vertex="1" parent="1">
          <mxGeometry x="1270" y="960" width="120" height="60" as="geometry" />
        </mxCell>
      </root>
    </mxGraphModel>
  </diagram>
</mxfile>
